<svg width="23" height="19" viewBox="0 0 23 19" fill="none" xmlns="http://www.w3.org/2000/svg">
<path d="M2.93193 0.243164H20.5319C21.1154 0.243164 21.675 0.480217 22.0876 0.902174C22.5001 1.32413 22.7319 1.89643 22.7319 2.49316V15.9932C22.7319 16.5899 22.5001 17.1622 22.0876 17.5842C21.675 18.0061 21.1154 18.2432 20.5319 18.2432H2.93193C1.71093 18.2432 0.731934 17.2307 0.731934 15.9932V2.49316C0.731934 1.24441 1.71093 0.243164 2.93193 0.243164ZM11.7319 8.11816L20.5319 2.49316H2.93193L11.7319 8.11816ZM2.93193 15.9932H20.5319V5.15941L11.7319 10.7732L2.93193 5.15941V15.9932Z" fill="white"/>
</svg>
